<svg width="25" height="25" viewBox="0 0 25 25" fill="none" xmlns="http://www.w3.org/2000/svg">
<path opacity="0.1" d="M2.34375 5.85938H14.8438C15.6726 5.85938 16.4674 6.18861 17.0535 6.77467C17.6395 7.36072 17.9688 8.15557 17.9688 8.98438V18.3594C17.9688 18.5666 17.8864 18.7653 17.7399 18.9118C17.5934 19.0583 17.3947 19.1406 17.1875 19.1406H4.6875C3.8587 19.1406 3.06384 18.8114 2.47779 18.2253C1.89174 17.6393 1.5625 16.8444 1.5625 16.0156V6.64062C1.5625 6.43342 1.64481 6.23471 1.79132 6.0882C1.93784 5.94169 2.13655 5.85937 2.34375 5.85938Z" fill="black"/>
<path d="M2.34375 5.85938H14.8438C15.6726 5.85938 16.4674 6.18861 17.0535 6.77467C17.6395 7.36072 17.9688 8.15557 17.9688 8.98438V18.3594C17.9688 18.5666 17.8864 18.7653 17.7399 18.9118C17.5934 19.0583 17.3947 19.1406 17.1875 19.1406H4.6875C3.8587 19.1406 3.06384 18.8114 2.47779 18.2253C1.89174 17.6393 1.5625 16.8444 1.5625 16.0156V6.64062C1.5625 6.43342 1.64481 6.23471 1.79132 6.0882C1.93784 5.94169 2.13655 5.85937 2.34375 5.85938V5.85938Z" stroke="#290F0F" stroke-linecap="round" stroke-linejoin="round"/>
<path d="M17.9688 10.9375L23.4375 7.8125V17.1875L17.9688 14.0625" stroke="#290F0F" stroke-linecap="round" stroke-linejoin="round"/>
</svg>
